<svg 
 xmlns="http://www.w3.org/2000/svg"
 xmlns:xlink="http://www.w3.org/1999/xlink"
 >
<path fill-rule="evenodd"  fill="rgb(0, 174, 239)"
 d="M43.493,7.388 C33.730,-2.379 17.912,-2.379 8.160,7.388 C-1.229,16.782 -1.582,31.808 7.111,41.628 L7.370,41.836 C6.425,43.873 4.805,46.387 2.229,47.655 C1.378,48.070 1.575,49.338 2.510,49.484 C5.324,49.920 9.364,49.432 13.135,46.585 L13.187,46.626 C22.762,52.259 35.288,50.970 43.513,42.740 C53.255,32.982 53.255,17.146 43.493,7.388 ZM34.062,35.757 C33.512,36.318 32.930,36.837 32.411,37.420 C31.653,38.272 30.697,38.542 29.617,38.479 C28.038,38.396 26.574,37.866 25.172,37.180 C22.046,35.663 19.377,33.554 17.144,30.894 C15.492,28.930 14.132,26.789 13.228,24.368 C12.792,23.194 12.480,21.999 12.574,20.731 C12.636,19.952 12.927,19.286 13.498,18.736 C14.121,18.143 14.703,17.530 15.316,16.928 C16.115,16.138 17.112,16.148 17.912,16.928 C18.411,17.416 18.888,17.905 19.377,18.393 C19.854,18.871 20.332,19.339 20.799,19.816 C21.630,20.658 21.630,21.635 20.799,22.477 C20.207,23.079 19.615,23.682 19.003,24.264 C18.847,24.420 18.826,24.545 18.909,24.742 C19.304,25.698 19.885,26.550 20.529,27.340 C21.828,28.940 23.302,30.364 25.068,31.465 C25.442,31.704 25.857,31.870 26.252,32.089 C26.449,32.203 26.595,32.161 26.751,31.995 C27.343,31.382 27.955,30.779 28.558,30.176 C29.357,29.387 30.354,29.387 31.144,30.176 C32.120,31.143 33.086,32.110 34.052,33.086 C34.883,33.938 34.883,34.936 34.062,35.757 ZM24.850,19.609 L25.162,17.385 C27.311,17.686 29.264,18.663 30.801,20.201 C32.266,21.666 33.221,23.505 33.564,25.532 L31.352,25.916 C31.082,24.347 30.344,22.924 29.212,21.791 C28.018,20.596 26.512,19.837 24.850,19.609 ZM37.178,25.532 C36.680,22.622 35.309,19.983 33.221,17.884 C31.019,15.681 28.225,14.288 25.141,13.852 L25.452,11.628 C29.015,12.127 32.255,13.738 34.800,16.294 C37.220,18.715 38.809,21.780 39.390,25.147 L37.178,25.532 Z"/>
</svg>